<svg width="20" height="20" viewBox="0 0 20 20" fill="none" xmlns="http://www.w3.org/2000/svg">
<path d="M17.8561 2.14857C17.4395 1.72274 16.8228 1.56524 16.2478 1.73191L2.83948 5.60607C2.23281 5.77441 1.80281 6.25524 1.68698 6.86524C1.56864 7.48691 1.98198 8.27691 2.52198 8.60691L6.71448 11.1669C7.14448 11.4302 7.69948 11.3644 8.05531 11.0077L12.8561 6.20691C13.0978 5.95607 13.4978 5.95607 13.7395 6.20691C13.9811 6.44774 13.9811 6.84024 13.7395 7.09024L8.93031 11.8911C8.57364 12.2477 8.50698 12.8011 8.76948 13.2319L11.3311 17.4402C11.6311 17.9394 12.1478 18.2236 12.7145 18.2236C12.7811 18.2236 12.8561 18.2236 12.9228 18.2144C13.5728 18.1319 14.0895 17.6894 14.2811 17.0644L18.2561 3.75691C18.4311 3.19024 18.2728 2.57357 17.8561 2.14857Z" fill="#1C1D22"/>
<path opacity="0.4" fill-rule="evenodd" clip-rule="evenodd" d="M2.5087 14.0065C2.3487 14.0065 2.1887 13.9457 2.06704 13.8232C1.82287 13.579 1.82287 13.184 2.06704 12.9398L3.20454 11.8015C3.4487 11.5582 3.84454 11.5582 4.0887 11.8015C4.33204 12.0457 4.33204 12.4415 4.0887 12.6857L2.95037 13.8232C2.8287 13.9457 2.6687 14.0065 2.5087 14.0065ZM5.64304 15.0002C5.48304 15.0002 5.32304 14.9393 5.20137 14.8168C4.9572 14.5727 4.9572 14.1777 5.20137 13.9335L6.33887 12.7952C6.58304 12.5518 6.97887 12.5518 7.22304 12.7952C7.46637 13.0393 7.46637 13.4352 7.22304 13.6793L6.0847 14.8168C5.96304 14.9393 5.80304 15.0002 5.64304 15.0002ZM5.85445 17.9735C5.97612 18.096 6.13612 18.1568 6.29612 18.1568C6.45612 18.1568 6.61612 18.096 6.73779 17.9735L7.87612 16.836C8.11945 16.5918 8.11945 16.196 7.87612 15.9518C7.63195 15.7085 7.23612 15.7085 6.99195 15.9518L5.85445 17.0902C5.61029 17.3343 5.61029 17.7293 5.85445 17.9735Z" fill="#1C1D22"/>
</svg>
