<svg width="14" height="14" viewBox="0 0 14 14" fill="none" xmlns="http://www.w3.org/2000/svg">
<path d="M5.09578 12.8548V10.8102C5.09577 10.2921 5.51707 9.87115 6.03892 9.86789H7.95503C8.47921 9.86789 8.90414 10.2898 8.90414 10.8102V12.8488C8.90413 13.2982 9.26931 13.6634 9.72192 13.6667H11.0292C11.6397 13.6682 12.2258 13.4285 12.6581 13.0005C13.0903 12.5724 13.3333 11.9912 13.3333 11.385V5.57724C13.3333 5.0876 13.1147 4.62315 12.7364 4.30901L8.29528 0.782856C7.51897 0.166092 6.41021 0.186016 5.65689 0.830266L1.3113 4.30901C0.91512 4.61389 0.678328 5.07972 0.666626 5.57724V11.3791C0.666626 12.6425 1.69821 13.6667 2.97074 13.6667H4.24815C4.46607 13.6682 4.67562 13.5834 4.83027 13.431C4.98493 13.2785 5.07191 13.0711 5.0719 12.8548H5.09578Z" fill="#5570F1"/>
</svg>
